<mxfile host="app.diagrams.net" modified="2024-07-05T16:12:43.453Z" agent="Mozilla/5.0 (Windows NT 10.0; Win64; x64) AppleWebKit/537.36 (KHTML, like Gecko) Chrome/126.0.0.0 Safari/537.36 Edg/126.0.0.0" etag="mNcsDVsFVUR3bIcYnNRl" version="24.6.4" type="device">
  <diagram name="PÃ¡gina-1" id="XL-cfnmHznf3lUtWbH0B">
    <mxGraphModel dx="1002" dy="1746" grid="1" gridSize="10" guides="1" tooltips="1" connect="1" arrows="1" fold="1" page="1" pageScale="1" pageWidth="827" pageHeight="1169" math="0" shadow="0">
      <root>
        <mxCell id="0" />
        <mxCell id="1" parent="0" />
        <mxCell id="5CPvkT_Bu2zkwuwfZ-S0-1" value="cliente" style="shape=umlActor;verticalLabelPosition=bottom;verticalAlign=top;html=1;" vertex="1" parent="1">
          <mxGeometry x="102.5" y="60" width="40" height="67.5" as="geometry" />
        </mxCell>
        <mxCell id="5CPvkT_Bu2zkwuwfZ-S0-2" value="VISUALIZAR OS VEICULOS" style="ellipse;whiteSpace=wrap;html=1;" vertex="1" parent="1">
          <mxGeometry x="375" y="370" width="140" height="70" as="geometry" />
        </mxCell>
        <mxCell id="5CPvkT_Bu2zkwuwfZ-S0-3" value="funcionario" style="shape=umlActor;verticalLabelPosition=bottom;verticalAlign=top;html=1;" vertex="1" parent="1">
          <mxGeometry x="100" y="290" width="50" height="75" as="geometry" />
        </mxCell>
        <mxCell id="5CPvkT_Bu2zkwuwfZ-S0-6" value="&lt;span style=&quot;white-space: pre;&quot;&gt;&#x9;&lt;/span&gt;atividade 3- CASOS DE USO" style="text;html=1;align=center;verticalAlign=middle;whiteSpace=wrap;rounded=0;" vertex="1" parent="1">
          <mxGeometry x="50" y="-40" width="230" height="30" as="geometry" />
        </mxCell>
        <mxCell id="5CPvkT_Bu2zkwuwfZ-S0-10" value="supervisor" style="shape=umlActor;verticalLabelPosition=bottom;verticalAlign=top;html=1;" vertex="1" parent="1">
          <mxGeometry x="95" y="500" width="55" height="90" as="geometry" />
        </mxCell>
        <mxCell id="5CPvkT_Bu2zkwuwfZ-S0-12" value="REGISTAR UM VEICULO" style="ellipse;whiteSpace=wrap;html=1;" vertex="1" parent="1">
          <mxGeometry x="375" y="292.5" width="140" height="70" as="geometry" />
        </mxCell>
        <mxCell id="5CPvkT_Bu2zkwuwfZ-S0-14" value="REGISTAR O ALUGUEL" style="ellipse;whiteSpace=wrap;html=1;" vertex="1" parent="1">
          <mxGeometry x="375" y="210" width="140" height="70" as="geometry" />
        </mxCell>
        <mxCell id="5CPvkT_Bu2zkwuwfZ-S0-21" value="" style="endArrow=open;endFill=1;endSize=12;html=1;rounded=0;entryX=0;entryY=0.5;entryDx=0;entryDy=0;" edge="1" parent="1" target="5CPvkT_Bu2zkwuwfZ-S0-22">
          <mxGeometry width="160" relative="1" as="geometry">
            <mxPoint x="190" y="549.5" as="sourcePoint" />
            <mxPoint x="350" y="549.5" as="targetPoint" />
          </mxGeometry>
        </mxCell>
        <mxCell id="5CPvkT_Bu2zkwuwfZ-S0-22" value="GERIR ALUGUEIS PROCESSADOS" style="ellipse;whiteSpace=wrap;html=1;" vertex="1" parent="1">
          <mxGeometry x="375" y="510" width="150" height="80" as="geometry" />
        </mxCell>
        <mxCell id="5CPvkT_Bu2zkwuwfZ-S0-24" value="" style="endArrow=open;endFill=1;endSize=12;html=1;rounded=0;entryX=0;entryY=0.5;entryDx=0;entryDy=0;" edge="1" parent="1" target="5CPvkT_Bu2zkwuwfZ-S0-2">
          <mxGeometry width="160" relative="1" as="geometry">
            <mxPoint x="180" y="340" as="sourcePoint" />
            <mxPoint x="380" y="384.5" as="targetPoint" />
          </mxGeometry>
        </mxCell>
        <mxCell id="5CPvkT_Bu2zkwuwfZ-S0-25" value="" style="endArrow=open;endFill=1;endSize=12;html=1;rounded=0;entryX=0;entryY=0.5;entryDx=0;entryDy=0;" edge="1" parent="1" target="5CPvkT_Bu2zkwuwfZ-S0-12">
          <mxGeometry width="160" relative="1" as="geometry">
            <mxPoint x="180" y="340" as="sourcePoint" />
            <mxPoint x="380" y="384.5" as="targetPoint" />
          </mxGeometry>
        </mxCell>
        <mxCell id="5CPvkT_Bu2zkwuwfZ-S0-26" value="" style="endArrow=open;endFill=1;endSize=12;html=1;rounded=0;entryX=0;entryY=0.5;entryDx=0;entryDy=0;" edge="1" parent="1" target="5CPvkT_Bu2zkwuwfZ-S0-14">
          <mxGeometry width="160" relative="1" as="geometry">
            <mxPoint x="180" y="340" as="sourcePoint" />
            <mxPoint x="380" y="384.5" as="targetPoint" />
          </mxGeometry>
        </mxCell>
        <mxCell id="5CPvkT_Bu2zkwuwfZ-S0-28" value="include" style="html=1;verticalAlign=bottom;endArrow=block;curved=0;rounded=0;entryX=0;entryY=0.5;entryDx=0;entryDy=0;exitX=0.97;exitY=0.317;exitDx=0;exitDy=0;exitPerimeter=0;" edge="1" parent="1" source="5CPvkT_Bu2zkwuwfZ-S0-14" target="5CPvkT_Bu2zkwuwfZ-S0-30">
          <mxGeometry width="80" relative="1" as="geometry">
            <mxPoint x="520" y="230" as="sourcePoint" />
            <mxPoint x="610" y="190" as="targetPoint" />
          </mxGeometry>
        </mxCell>
        <mxCell id="5CPvkT_Bu2zkwuwfZ-S0-29" value="include" style="html=1;verticalAlign=bottom;endArrow=block;curved=0;rounded=0;entryX=0;entryY=0.5;entryDx=0;entryDy=0;" edge="1" parent="1" target="5CPvkT_Bu2zkwuwfZ-S0-31">
          <mxGeometry width="80" relative="1" as="geometry">
            <mxPoint x="515" y="240" as="sourcePoint" />
            <mxPoint x="625" y="230" as="targetPoint" />
          </mxGeometry>
        </mxCell>
        <mxCell id="5CPvkT_Bu2zkwuwfZ-S0-30" value="registar levantamento" style="ellipse;whiteSpace=wrap;html=1;" vertex="1" parent="1">
          <mxGeometry x="620" y="170" width="100" height="32.5" as="geometry" />
        </mxCell>
        <mxCell id="5CPvkT_Bu2zkwuwfZ-S0-31" value="registar entrega" style="ellipse;whiteSpace=wrap;html=1;" vertex="1" parent="1">
          <mxGeometry x="620" y="210" width="100" height="32.5" as="geometry" />
        </mxCell>
        <mxCell id="5CPvkT_Bu2zkwuwfZ-S0-33" value="registar dados do aluguel" style="ellipse;whiteSpace=wrap;html=1;" vertex="1" parent="1">
          <mxGeometry x="620" y="127.5" width="100" height="32.5" as="geometry" />
        </mxCell>
        <mxCell id="5CPvkT_Bu2zkwuwfZ-S0-34" value="include" style="html=1;verticalAlign=bottom;endArrow=block;curved=0;rounded=0;entryX=0;entryY=0.5;entryDx=0;entryDy=0;exitX=0.907;exitY=0.249;exitDx=0;exitDy=0;exitPerimeter=0;" edge="1" parent="1" source="5CPvkT_Bu2zkwuwfZ-S0-14" target="5CPvkT_Bu2zkwuwfZ-S0-33">
          <mxGeometry width="80" relative="1" as="geometry">
            <mxPoint x="490" y="214" as="sourcePoint" />
            <mxPoint x="600" y="170" as="targetPoint" />
          </mxGeometry>
        </mxCell>
        <mxCell id="5CPvkT_Bu2zkwuwfZ-S0-35" value="include" style="html=1;verticalAlign=bottom;endArrow=block;curved=0;rounded=0;entryX=0;entryY=0.5;entryDx=0;entryDy=0;exitX=0.788;exitY=0.038;exitDx=0;exitDy=0;exitPerimeter=0;" edge="1" parent="1" source="5CPvkT_Bu2zkwuwfZ-S0-22" target="5CPvkT_Bu2zkwuwfZ-S0-38">
          <mxGeometry width="80" relative="1" as="geometry">
            <mxPoint x="500" y="510" as="sourcePoint" />
            <mxPoint x="580" y="510" as="targetPoint" />
          </mxGeometry>
        </mxCell>
        <mxCell id="5CPvkT_Bu2zkwuwfZ-S0-36" value="include" style="html=1;verticalAlign=bottom;endArrow=block;curved=0;rounded=0;" edge="1" parent="1">
          <mxGeometry width="80" relative="1" as="geometry">
            <mxPoint x="530" y="550" as="sourcePoint" />
            <mxPoint x="610" y="550" as="targetPoint" />
          </mxGeometry>
        </mxCell>
        <mxCell id="5CPvkT_Bu2zkwuwfZ-S0-38" value="eliminar aluguel" style="ellipse;whiteSpace=wrap;html=1;" vertex="1" parent="1">
          <mxGeometry x="580" y="450" width="100" height="50" as="geometry" />
        </mxCell>
        <mxCell id="5CPvkT_Bu2zkwuwfZ-S0-39" value="visualizar alugueis" style="ellipse;whiteSpace=wrap;html=1;" vertex="1" parent="1">
          <mxGeometry x="610" y="517.5" width="110" height="55" as="geometry" />
        </mxCell>
        <mxCell id="5CPvkT_Bu2zkwuwfZ-S0-40" value="include" style="html=1;verticalAlign=bottom;endArrow=block;curved=0;rounded=0;exitX=1;exitY=0;exitDx=0;exitDy=0;entryX=0;entryY=0.5;entryDx=0;entryDy=0;" edge="1" parent="1" source="5CPvkT_Bu2zkwuwfZ-S0-14" target="5CPvkT_Bu2zkwuwfZ-S0-41">
          <mxGeometry width="80" relative="1" as="geometry">
            <mxPoint x="470" y="170.5" as="sourcePoint" />
            <mxPoint x="565" y="170" as="targetPoint" />
          </mxGeometry>
        </mxCell>
        <mxCell id="5CPvkT_Bu2zkwuwfZ-S0-41" value="pagamento do aluguel" style="ellipse;whiteSpace=wrap;html=1;" vertex="1" parent="1">
          <mxGeometry x="620" y="80" width="90" height="40" as="geometry" />
        </mxCell>
        <mxCell id="5CPvkT_Bu2zkwuwfZ-S0-42" value="entrega da viatura" style="ellipse;whiteSpace=wrap;html=1;" vertex="1" parent="1">
          <mxGeometry x="625" y="250" width="90" height="30" as="geometry" />
        </mxCell>
        <mxCell id="5CPvkT_Bu2zkwuwfZ-S0-43" value="include" style="html=1;verticalAlign=bottom;endArrow=block;curved=0;rounded=0;entryX=0;entryY=0.5;entryDx=0;entryDy=0;" edge="1" parent="1" target="5CPvkT_Bu2zkwuwfZ-S0-42">
          <mxGeometry width="80" relative="1" as="geometry">
            <mxPoint x="510" y="250" as="sourcePoint" />
            <mxPoint x="630" y="236" as="targetPoint" />
          </mxGeometry>
        </mxCell>
      </root>
    </mxGraphModel>
  </diagram>
</mxfile>
